<?xml version="1.0"?>
<svg width="1024" height="1024" xmlns="http://www.w3.org/2000/svg" xmlns:svg="http://www.w3.org/2000/svg">
 <g class="layer">
  <title>Layer 1</title>
  <path d="m513.37,64a448,448 0 1 1 0,896a448,448 0 0 1 0,-896zm0,393.66l-104.06,-104.06a38.4,38.4 0 1 0 -54.34,54.34l104.06,104.06l-104.06,104.06a38.4,38.4 0 1 0 54.34,54.34l104.06,-104.06l104.06,104.06a38.4,38.4 0 1 0 54.34,-54.34l-104.06,-104.06l104.06,-104.06a38.4,38.4 0 1 0 -54.34,-54.34l-104.06,104.06z" fill="#ed6a5e" id="svg_1"/>
 </g>
</svg>