<?xml version="1.0"?>
<svg width="48" height="48" xmlns="http://www.w3.org/2000/svg" xmlns:svg="http://www.w3.org/2000/svg">
 <g class="layer">
  <title>Layer 1</title>
  <path clip-rule="evenodd" d="m44,24c0,11.05 -8.95,20 -20,20c-11.05,0 -20,-8.95 -20,-20c0,-11.05 8.95,-20 20,-20c11.05,0 20,8.95 20,20zm-23,-12c0,-1.66 1.34,-3 3,-3c1.66,0 3,1.34 3,3l0,16c0,1.66 -1.34,3 -3,3c-1.66,0 -3,-1.34 -3,-3l0,-16zm3,21c-1.66,0 -3,1.34 -3,3c0,1.66 1.34,3 3,3c1.66,0 3,-1.34 3,-3c0,-1.66 -1.34,-3 -3,-3z" fill="#069de3" fill-rule="evenodd" id="svg_1"/>
 </g>
</svg>