<svg xmlns="http://www.w3.org/2000/svg" viewBox="0 0 1726 226" width="1726" height="226"><title>logo-growth99-svg</title><style>		.s0 { fill: #ffffff } 		.s1 { fill: #92c0b2 } 	</style><path fill-rule="evenodd" class="s0" d="m1557.3 20.8c9.5 8.1 17.2 17.4 21.7 29.2 2-2.9 2-2.9 3.4-5.6 9.4-17 23.3-29.1 41.7-35.5 22.5-6.4 46.8-4.2 67.5 6.4 16.6 9.3 26.9 23.9 32.4 41.9 4.7 18.8 3.2 40.6-6 57.8-4.1 6.9-8.8 13.5-13.3 20.2q-3.9 5.7-7.7 11.4-0.9 1.3-1.9 2.8c-3.9 5.7-7.7 11.5-11.4 17.4q-1.8 2.8-3.6 5.6c-3.1 4.7-6.1 9.5-8.8 14.5-16.9 31.9-16.9 31.9-26.7 36.2-11.9 3.3-24.7 1.3-36.6-1.1 1.2-3.2 2.5-6 4.4-8.8q0.8-1 1.5-2.1 0.8-1.2 1.7-2.3 1.7-2.6 3.5-5.2 0.9-1.3 1.9-2.7 5.3-7.6 10.4-15.3 1.1-1.5 2.2-3.1 10.3-15.2 20.4-30.5-0.9-0.1-1.7-0.1c-20.5-1.7-38.5-4.8-54.3-18.9q-1-0.9-2.1-1.8c-6.5-6.2-11-13.4-15-21.4q-0.5-1.1-1.1-2.2-0.4-0.8-0.8-1.6-0.6 1.4-1.3 2.8c-5.7 12.2-13.1 23.1-20.8 34.3q-2.9 4.3-5.9 8.6-1.9 2.9-3.8 5.7-6.7 9.8-13.1 19.7c-6.3 9.7-12.6 19.2-19 28.8q-0.7 1.1-1.5 2.2-2.1 3.2-4.2 6.4-0.7 1-1.3 1.9c-3 4.5-3 4.5-4.1 5.6q-4.3 0.1-8.6 0.1c-1.3 0-1.3 0-2.6 0q-4.2 0-8.4 0-2.8 0-5.6-0.1-6.9 0-13.8 0c1.5-3.1 3.2-6 5.2-8.9q0.9-1.4 1.9-2.9 1-1.5 2.1-3.1 1.1-1.6 2.2-3.2 7.9-11.9 16.1-23.8c6.6-9.6 13-19.4 19.5-29.1q-1.5 0.1-3 0.1c-21.4 0.5-40.9-5.8-56.6-20.6-14.9-15.5-20-33.9-19.8-54.8 0.5-19.4 6.8-36.3 20.6-50.1 10.4-9.6 23-15.6 36.8-18.6q1.3-0.3 2.6-0.6c23.1-3 45.9 0.1 64.7 14.4zm-83.3 29.2c-8.4 11.3-10.4 23.2-9 37 2.4 12.2 9.2 20.7 19 28 11.1 6.5 23.9 7.6 36.3 4.8 10.1-2.9 19.4-7.7 24.8-17.3 6.5-12.5 8.5-26.3 4.3-40.1-3.9-10-11.4-18.2-21.2-22.7-18.5-6.9-40.3-4.9-54.2 10.3zm142 1c-7.7 9.7-9.6 21.5-8.8 33.7 1.6 10 6.8 20.5 14.8 26.8 11.5 8.2 24.1 11.2 38.1 9 11.6-2.6 20.9-7.8 27.6-17.7 6.8-11.3 8.1-23.3 5.7-36.2-3-10.1-8.9-18.9-18-24.4-20.5-10.5-43.3-8-59.4 8.8z"></path><path class="s0" d="m632.9 26.1c9.5 7.6 20.8 16.8 26.1 27.9-0.3 2.5-0.6 3.6-2.5 5.3q-1 0.5-2 1.1-1 0.6-2.1 1.2c-1.2 0.6-1.2 0.6-2.3 1.3q-2.4 1.3-4.7 2.6-1.1 0.6-2.3 1.3c-3.5 2-6.8 4.1-10.2 6.2-1.9 1-1.9 1-4.9 1-1.6-1.9-1.6-1.9-3.2-4.6-10-14.7-25.5-23.3-42.9-26.9-21.9-2.8-43.8 0.2-61.8 13.7-2.5 2.2-4.8 4.4-7.1 6.8q-1 1-2.1 2c-11.8 12.1-18.2 29.3-18.9 46q-0.1 1.2-0.2 2.4c-0.6 18.7 5.1 37.2 17.2 51.6q0.9 0.8 1.7 1.7c1.3 1.3 1.3 1.3 1.3 3.3q0.9 0.4 1.8 0.8c2.3 1.3 4.1 2.7 6.2 4.4 17.7 14 40.5 16.7 62.3 14.6 16.1-2.2 30.9-9.1 41.2-21.8 0.8-1 0.8-1 1.5-2q0.7-0.9 1.4-1.8c6.5-9.3 8.6-21.2 10.6-32.2-23.4 0-46.9 0-71 0 0-10.6 0-21.1 0-32 35.3 0 70.6 0 107 0 0 41.3-1.4 71-30 100q-1 1-2 2c-22.1 20.8-52.9 24.8-81.9 24.1-24.7-1.1-47.3-10.4-66.1-26.1-1-0.8-1-0.8-2-1.6-5.5-4.3-9.7-9.9-14-15.4q-0.9-1.2-1.9-2.4c-14-19.1-19.5-40.8-19.5-64.2q0-1 0-2.1c0.1-11.2 0.9-21.6 4.4-32.3q0.3-1 0.6-2.1c8.4-26.1 28.3-49.4 52.6-62.2 37.5-18.8 85.4-16.4 119.7 8.4z"></path><path class="s1" d="m20 119c6.2 2 12.3 4.3 18.3 6.8q1.3 0.5 2.7 1.1 2.9 1.2 5.7 2.4 4.6 1.9 9.1 3.7 9.6 4 19.2 8 10.8 4.5 21.6 9 4.3 1.7 8.5 3.5c9 3.7 18.1 7.4 27.2 10.9q1.2 0.5 2.5 1c13.7 5.1 27.7 8.5 42.2 10.6q0.9 0.1 1.9 0.3c56.9 7.5 106.9-16.3 157.9-37.7q13.4-5.6 26.9-11.2 2.7-1.1 5.4-2.3 3.7-1.5 7.4-3.1c1.1-0.4 1.1-0.4 2.2-0.9 5.1-2.1 5.1-2.1 7.3-2.1q2.5 5.7 5 11.4 0.7 1.6 1.4 3.2 0.7 1.6 1.4 3.2 0.6 1.4 1.3 2.9c0.9 2.3 0.9 2.3 0.9 4.3-1.8 0.7-1.8 0.7-3.6 1.5q-31.8 13.1-63.5 26.3-1.1 0.4-2.3 0.9-26.8 11.1-53.6 22.3c43.9 0.3 87.8 0.7 133 1 0 8.6 0 17.2 0 26-134 0-268 0-406 0 0-8.6 0-17.2 0-26 66.3-0.5 66.3-0.5 134-1-12.2-4.9-24.4-9.9-37-15-12.7-5.3-12.7-5.3-18.8-7.9q-6.6-2.7-13.2-5.5-1.3-0.6-2.7-1.1c-12.2-5.2-24.5-10.2-36.7-15.3q-1.3-0.5-2.6-1-2.3-1-4.6-2c-5.2-2.1-5.2-2.1-7.4-3.2 0.6-5.8 2.8-10.6 5.1-15.9q0.5-1.3 1.1-2.6 1.4-3.3 2.8-6.5z"></path><path class="s0" d="m935 70c11.9 0 23.8 0 36 0 2.3 8.1 2.3 8.1 4.6 16.3q1.5 5.2 2.9 10.4 2.3 8.2 4.6 16.4c7.9 28 7.9 28 15.9 55.9 2.2-3.3 3.2-6.6 4.4-10.3 0.3-1.1 0.3-1.1 0.6-2.3q1.2-3.7 2.3-7.4 0.8-2.6 1.5-5.2 2.1-6.8 4.2-13.6 1.6-5.5 3.3-11.1c5-16.3 9.9-32.7 14.7-49.1 10.9 0 21.8 0 33 0q15.2 49.4 30 99c1.7-2.6 2.4-4.1 3.3-7q0.3-1.2 0.7-2.4 0.3-1.3 0.7-2.6 0.4-1.4 0.8-2.8 1.3-4.6 2.6-9.2 0.9-3.2 1.8-6.4 2.3-8.4 4.7-16.8 3.8-13.4 7.6-26.9 1.3-4.7 2.6-9.4 0.8-2.8 1.6-5.7 0.4-1.3 0.8-2.7c1.7-6 1.7-6 2.8-7.1q3.9-0.1 7.8-0.1 1.1 0 2.3 0 3.7 0 7.5 0 2.5 0 5 0.1 6.2 0 12.4 0c-1.5 7.3-3.5 14.2-5.8 21.3q-0.5 1.8-1.1 3.7-1.6 5-3.1 9.9-1.7 5.3-3.3 10.5-3.6 11.4-7.2 22.8-2.3 7.4-4.7 14.9-4.7 15-9.4 30-0.4 1.2-0.8 2.5-2.2 7-4.4 13.9-0.7 2.2-1.3 4.3-1 2.9-1.9 5.8-0.5 1.7-1 3.3-1.5 4.6-3 9.1c-10.9 0-21.8 0-33 0-2.4-6.1-4.7-11.9-6.6-18.1q-0.4-1.2-0.7-2.3-1.1-3.6-2.2-7.3-0.8-2.6-1.6-5.1-2.1-6.7-4.1-13.5-2.1-6.8-4.2-13.6c-8.6-27.9-8.6-27.9-11.6-38.1q-8.1 25.2-16 50.4-1.8 5.6-3.6 11.2-1.1 3.6-2.3 7.2-0.5 1.7-1 3.3-4.1 13-8.1 25.9c-11.2 0-22.4 0-34 0q-16.5-52.4-32.9-104.9-1.1-3.2-2.1-6.5-1.6-5.1-3.2-10.2-0.8-2.8-1.7-5.5-1-3.3-2.1-6.6-1.1-3.5-2.2-7c-0.5-1.7-0.5-1.7-1.1-3.5q-0.5-1.6-1-3.2c-0.7-2.6-0.7-2.6-0.7-4.6z"></path><path class="s1" d="m190 6c8.6 0 17.2 0 26 0 0 3.6 0 3.6 0 7.3q0.1 12.1 0.2 24.1 0.1 7.3 0.1 14.5 0.1 7.1 0.2 14.1 0 2.7 0 5.4 0 3.7 0.1 7.5 0 1.1 0 2.2c0 4.7 0.9 7.9 3.4 11.9 2.9 2.6 5.2 3.3 9 3.1 3.3-0.3 4.1-1.2 6.4-3.7 2.8-3.5 4.5-7.2 6.1-11.3q0.5-1.2 0.9-2.3 1.5-3.8 3-7.6 1.1-2.6 2.1-5.2 2.2-5.3 4.3-10.7c3.1-7.5 6.2-15 9.3-22.5q2.2-5.4 4.4-10.7 1.2-3.1 2.5-6.1c6 1.9 11.8 4.1 17.6 6.7q1 0.5 2.2 1 2.6 1.1 5.2 2.3c-2 6.1-4.2 12.1-6.7 18q-0.5 1.2-1 2.5-1.1 2.7-2.2 5.3-1.7 4.2-3.5 8.3c-3.2 7.9-6.5 15.8-9.9 23.6q-0.7 1.7-1.5 3.4-1.2 2.9-2.5 5.7c-2.6 6-3.8 11-2.1 17.5 2.2 2.6 4.2 3.6 7.4 4.7 3.9 0.3 6.1-0.3 9.1-2.7 6.7-6.1 13.2-12.5 19.6-18.9q1.6-1.6 3.2-3.3 4.3-4.2 8.5-8.4 4.3-4.4 8.7-8.7 8.4-8.5 16.9-17c7.4 6.3 7.4 6.3 10.3 9.2 0.8 0.8 0.8 0.8 1.6 1.6q0.7 0.8 1.5 1.6c0.8 0.8 0.8 0.8 1.7 1.6q1.9 2 3.9 4c-5.8 7.1-12.3 13.5-18.8 20q-0.9 0.9-1.8 1.9-4.9 4.9-9.8 9.8-5 5-10 10-3.8 3.9-7.7 7.8-1.8 1.9-3.7 3.7-2.6 2.6-5.2 5.2-0.7 0.8-1.5 1.6c-7.4 7.3-15.4 9.3-25.7 9.3-8.8-0.2-14.6-3.5-22-8.2-19.3-12.1-42.3-16.5-64.7-12-12.3 2.9-23 8-33.4 15.1-8.8 5.8-19.3 6.3-29.5 4.2-12.1-4.1-21.4-16.4-30.2-25.3q-1.8-1.8-3.7-3.7-4.7-4.7-9.5-9.5-4.9-4.9-9.7-9.8-9.6-9.5-19.1-19.1c6.3-7.4 6.3-7.4 9.2-10.3q0.8-0.8 1.6-1.6 0.8-0.7 1.6-1.5 0.8-0.8 1.6-1.7 2-1.9 4-3.9c4 1.6 6.6 4.3 9.5 7.4 0.8 0.8 0.8 0.8 1.6 1.6q1.7 1.8 3.5 3.6 2.7 2.8 5.5 5.6 7.9 7.9 15.7 15.9 4.7 4.9 9.6 9.8 1.8 1.8 3.6 3.7 2.6 2.6 5.1 5.2 0.8 0.7 1.5 1.5c3.6 3.6 6.4 4.5 11.4 4.7 4.2-1.3 5.6-2.4 8.1-6.1 2.5-7.1-2.9-16.3-5.7-22.9-0.5-1.2-0.5-1.2-1.1-2.5q-1.6-4-3.3-7.9-1.7-4.2-3.4-8.3-1.2-2.7-2.3-5.5-5-11.9-9.9-23.9-0.6-1.6-1.4-3.4-1.5-3.7-3-7.5c2.8-2.3 5.4-3.7 8.8-5 1.3-0.6 1.3-0.6 2.7-1.1q1.3-0.5 2.8-1.1 1.3-0.5 2.8-1.1 3.4-1.4 6.9-2.7c2.1 2.1 2.7 3.4 3.8 6q0.5 1.3 1 2.6c0.6 1.3 0.6 1.3 1.2 2.7q0.5 1.5 1.1 2.9 1.3 3.1 2.5 6.1 2 4.8 3.9 9.5 2.6 6.3 5.2 12.5 4.3 10.6 8.7 21.3c0.7 1.5 0.7 1.5 1.3 3 3 8 3 8 9.3 13.2 3.4 0.3 5.5 0.4 8.8-0.9 3.7-3.2 5.1-5.8 5.6-10.6q0-2.2 0-4.4 0-1.2 0.1-2.4 0-4 0-7.9 0-2.8 0.1-5.5 0-7.2 0.1-14.5 0-7.3 0.1-14.7 0.1-14.4 0.2-28.9z"></path><path class="s0" d="m1306 0c0.3 28.4 0.7 56.8 1 86 2-2.3 4-4.6 6-7 13.2-11.5 30-14.1 47-13 14 1.7 27.5 7.3 37 18 10.4 13.4 14.4 29 14.2 45.7q0 1.5 0 3.1 0 4.9 0 9.8 0 3.4 0 6.9 0 9-0.1 18 0 9.2 0 18.4 0 18.1-0.1 36.1c-11.2 0-22.4 0-34 0 0-2.9 0-5.9 0-8.9q-0.1-14.6-0.2-29.3 0-8.8-0.1-17.7 0-8.5-0.1-17.1 0-3.2 0-6.5c0.3-19.4 0.3-19.4-8.8-36-9.6-7.9-20.9-8.5-32.8-7.5-8.2 1.6-14.6 5.6-20 12-8.7 13.5-8.3 27.9-8.4 43.3q0 3-0.1 5.9 0 7.7-0.1 15.3-0.1 7.9-0.1 15.8-0.2 15.3-0.3 30.7c-10.9 0-21.8 0-33 0 0-70.3 0-140.6 0-213 30-9 30-9 33-9z"></path><path fill-rule="evenodd" class="s0" d="m850.4 65.8c24.5-0.5 45.1 7 63.1 23.7 14.2 14.1 21.7 33.8 22.5 53.6-0.2 23.8-7.5 44-24.3 61.3-17.5 16.5-38 22.3-61.5 21.8-22.2-0.8-40.5-10.6-55.8-26.4-15.3-17.9-21.2-39.5-19.4-62.8 2.5-22.6 13.7-40.7 30.8-55.3 12.9-9.8 28.5-15.1 44.6-15.9zm-30.8 48.5c-10 12.1-11.9 25.6-10.6 40.7 2 12 8.5 21.8 17.9 29.5 8.7 6.1 17.9 8.9 28.5 8.8 1.1 0 1.1 0 2.2 0 12-0.3 22.7-5 31.4-13.3 9.4-10.8 13.6-22.6 13.2-36.9-1-13.1-6.2-24.2-15.8-33.1-20-16.6-48.8-14.7-66.8 4.3z"></path><path class="s0" d="m1212 28c0 13.9 0 27.7 0 42 12.5 0 25.1 0 38 0 0 10.9 0 21.8 0 33-12.5 0-25.1 0-38 0 0.1 13.3 0.1 13.3 0.2 26.6q0.1 8.1 0.1 16.3 0.1 6.5 0.2 13.1 0 2.5 0 5c-0.1 12.3-0.1 12.3 3.5 24 6.4 4.1 14.7 3.5 22.1 3.7 3.9 0.1 7.8 0.2 11.9 0.3 0 9.9 0 19.8 0 30-5.7 1.4-11.4 1.2-17.3 1.2q-3.2 0.1-6.5 0.1c-13.5 0.1-25.9-1.7-36.2-11.2-10.4-11-11.3-24.4-11.2-39q0-2.2 0-4.5 0-6 0-12 0-6.3 0-12.6 0-12 0.1-23.9 0-13.6 0-27.2 0-27.9 0.1-55.9 6.3-1.9 12.7-3.8 2.1-0.7 4.3-1.4 3-0.9 6.1-1.8 1.9-0.6 3.8-1.2c3.1-0.8 3.1-0.8 6.1-0.8z"></path><path class="s0" d="m772 67c0 12.2 0 24.4 0 37-4.6 0.3-9.2 0.7-14 1-11 3.2-20.9 7.7-26.8 18-4.5 11.2-4.7 21.7-4.7 33.7q0 2.8-0.1 5.6 0 7.4-0.1 14.9 0 7.5-0.1 15.1-0.1 14.9-0.2 29.7c-11.2 0-22.4 0-34 0 0-50.2 0-100.3 0-152 11.2 0 22.4 0 34 0 0.3 6.6 0.7 13.2 1 20q1.5-2 3.1-4.1c10.6-13.6 24.9-18.9 41.9-18.9z"></path></svg>